note_on channel=9 note=46 velocity=65 time=0
note_off channel=9 note=46 velocity=0 time=0
control_change channel=9 control=4 value=39 time=0
control_change channel=9 control=4 value=64 time=0
control_change channel=9 control=4 value=100 time=0
control_change channel=9 control=4 value=105 time=0
control_change channel=9 control=4 value=127 time=0
note_on channel=9 note=44 velocity=126 time=0
note_off channel=9 note=44 velocity=0 time=0

oh -> stop

control_change channel=9 control=4 value=38 time=0
control_change channel=9 control=4 value=39 time=0
control_change channel=9 control=4 value=40 time=0
control_change channel=9 control=4 value=41 time=0
control_change channel=9 control=4 value=42 time=0
control_change channel=9 control=4 value=43 time=0
control_change channel=9 control=4 value=44 time=0
control_change channel=9 control=4 value=45 time=0
control_change channel=9 control=4 value=46 time=0
control_change channel=9 control=4 value=47 time=0
control_change channel=9 control=4 value=48 time=0
control_change channel=9 control=4 value=49 time=0
control_change channel=9 control=4 value=49 time=0
control_change channel=9 control=4 value=52 time=0
control_change channel=9 control=4 value=53 time=0
control_change channel=9 control=4 value=55 time=0
control_change channel=9 control=4 value=57 time=0
control_change channel=9 control=4 value=58 time=0
control_change channel=9 control=4 value=59 time=0
control_change channel=9 control=4 value=60 time=0
control_change channel=9 control=4 value=61 time=0
control_change channel=9 control=4 value=62 time=0
control_change channel=9 control=4 value=51 time=0
control_change channel=9 control=4 value=50 time=0
control_change channel=9 control=4 value=49 time=0
control_change channel=9 control=4 value=60 time=0
control_change channel=9 control=4 value=61 time=0
control_change channel=9 control=4 value=62 time=0
control_change channel=9 control=4 value=63 time=0
control_change channel=9 control=4 value=63 time=0
control_change channel=9 control=4 value=64 time=0
control_change channel=9 control=4 value=65 time=0
control_change channel=9 control=4 value=66 time=0
control_change channel=9 control=4 value=67 time=0
control_change channel=9 control=4 value=68 time=0
control_change channel=9 control=4 value=69 time=0
control_change channel=9 control=4 value=70 time=0
control_change channel=9 control=4 value=71 time=0
control_change channel=9 control=4 value=72 time=0
control_change channel=9 control=4 value=73 time=0
control_change channel=9 control=4 value=74 time=0
control_change channel=9 control=4 value=75 time=0
control_change channel=9 control=4 value=76 time=0
control_change channel=9 control=4 value=77 time=0
control_change channel=9 control=4 value=78 time=0
control_change channel=9 control=4 value=79 time=0
control_change channel=9 control=4 value=79 time=0
control_change channel=9 control=4 value=80 time=0
control_change channel=9 control=4 value=81 time=0
control_change channel=9 control=4 value=82 time=0
control_change channel=9 control=4 value=83 time=0
control_change channel=9 control=4 value=83 time=0
control_change channel=9 control=4 value=84 time=0
control_change channel=9 control=4 value=85 time=0
control_change channel=9 control=4 value=86 time=0
control_change channel=9 control=4 value=87 time=0
control_change channel=9 control=4 value=88 time=0
control_change channel=9 control=4 value=89 time=0
control_change channel=9 control=4 value=90 time=0
control_change channel=9 control=4 value=90 time=0
control_change channel=9 control=4 value=91 time=0
control_change channel=9 control=4 value=92 time=0
control_change channel=9 control=4 value=93 time=0
control_change channel=9 control=4 value=94 time=0
control_change channel=9 control=4 value=95 time=0
control_change channel=9 control=4 value=97 time=0
control_change channel=9 control=4 value=98 time=0
control_change channel=9 control=4 value=98 time=0
control_change channel=9 control=4 value=100 time=0
control_change channel=9 control=4 value=100 time=0
control_change channel=9 control=4 value=101 time=0
control_change channel=9 control=4 value=102 time=0
control_change channel=9 control=4 value=104 time=0
control_change channel=9 control=4 value=104 time=0
control_change channel=9 control=4 value=106 time=0
control_change channel=9 control=4 value=107 time=0
control_change channel=9 control=4 value=108 time=0
control_change channel=9 control=4 value=109 time=0
control_change channel=9 control=4 value=110 time=0
control_change channel=9 control=4 value=111 time=0
control_change channel=9 control=4 value=113 time=0
control_change channel=9 control=4 value=114 time=0
control_change channel=9 control=4 value=115 time=0
control_change channel=9 control=4 value=117 time=0
control_change channel=9 control=4 value=119 time=0
control_change channel=9 control=4 value=122 time=0
control_change channel=9 control=4 value=123 time=0
control_change channel=9 control=4 value=125 time=0
control_change channel=9 control=4 value=126 time=0
control_change channel=9 control=4 value=127 time=0
control_change channel=9 control=4 value=127 time=0

voet in


control_change channel=9 control=4 value=117 time=0
control_change channel=9 control=4 value=116 time=0
control_change channel=9 control=4 value=114 time=0
control_change channel=9 control=4 value=113 time=0
control_change channel=9 control=4 value=112 time=0
control_change channel=9 control=4 value=111 time=0
control_change channel=9 control=4 value=111 time=0
control_change channel=9 control=4 value=110 time=0
control_change channel=9 control=4 value=109 time=0
control_change channel=9 control=4 value=108 time=0
control_change channel=9 control=4 value=106 time=0
control_change channel=9 control=4 value=105 time=0
control_change channel=9 control=4 value=104 time=0
control_change channel=9 control=4 value=103 time=0
control_change channel=9 control=4 value=102 time=0
control_change channel=9 control=4 value=101 time=0
control_change channel=9 control=4 value=100 time=0
control_change channel=9 control=4 value=99 time=0
control_change channel=9 control=4 value=98 time=0
control_change channel=9 control=4 value=97 time=0
control_change channel=9 control=4 value=96 time=0
control_change channel=9 control=4 value=95 time=0
control_change channel=9 control=4 value=94 time=0
control_change channel=9 control=4 value=93 time=0
control_change channel=9 control=4 value=92 time=0
control_change channel=9 control=4 value=91 time=0
control_change channel=9 control=4 value=90 time=0
control_change channel=9 control=4 value=89 time=0
control_change channel=9 control=4 value=88 time=0
control_change channel=9 control=4 value=87 time=0
control_change channel=9 control=4 value=86 time=0
control_change channel=9 control=4 value=85 time=0
control_change channel=9 control=4 value=84 time=0
control_change channel=9 control=4 value=83 time=0
control_change channel=9 control=4 value=82 time=0
control_change channel=9 control=4 value=81 time=0
control_change channel=9 control=4 value=80 time=0
control_change channel=9 control=4 value=79 time=0
control_change channel=9 control=4 value=78 time=0
control_change channel=9 control=4 value=77 time=0
control_change channel=9 control=4 value=76 time=0
control_change channel=9 control=4 value=75 time=0
control_change channel=9 control=4 value=74 time=0
control_change channel=9 control=4 value=73 time=0
control_change channel=9 control=4 value=72 time=0
control_change channel=9 control=4 value=71 time=0
control_change channel=9 control=4 value=70 time=0
control_change channel=9 control=4 value=69 time=0
control_change channel=9 control=4 value=68 time=0
control_change channel=9 control=4 value=66 time=0
control_change channel=9 control=4 value=65 time=0
control_change channel=9 control=4 value=64 time=0
control_change channel=9 control=4 value=63 time=0
control_change channel=9 control=4 value=62 time=0
control_change channel=9 control=4 value=61 time=0
control_change channel=9 control=4 value=61 time=0
control_change channel=9 control=4 value=60 time=0
control_change channel=9 control=4 value=58 time=0
control_change channel=9 control=4 value=57 time=0
control_change channel=9 control=4 value=54 time=0
control_change channel=9 control=4 value=52 time=0
control_change channel=9 control=4 value=50 time=0
control_change channel=9 control=4 value=49 time=0
control_change channel=9 control=4 value=48 time=0
control_change channel=9 control=4 value=46 time=0
control_change channel=9 control=4 value=46 time=0
control_change channel=9 control=4 value=45 time=0
control_change channel=9 control=4 value=43 time=0
control_change channel=9 control=4 value=42 time=0
control_change channel=9 control=4 value=41 time=0
control_change channel=9 control=4 value=40 time=0
control_change channel=9 control=4 value=39 time=0
control_change channel=9 control=4 value=38 time=0
control_change channel=9 control=4 value=37 time=0
control_change channel=9 control=4 value=36 time=0
control_change channel=9 control=4 value=35 time=0
control_change channel=9 control=4 value=34 time=0
control_change channel=9 control=4 value=33 time=0
control_change channel=9 control=4 value=31 time=0
control_change channel=9 control=4 value=30 time=0
control_change channel=9 control=4 value=29 time=0
control_change channel=9 control=4 value=28 time=0
control_change channel=9 control=4 value=27 time=0
control_change channel=9 control=4 value=26 time=0


voet -> uit

control_change channel=9 control=4 value=37 time=0
control_change channel=9 control=4 value=51 time=0
control_change channel=9 control=4 value=93 time=0
control_change channel=9 control=4 value=109 time=0
control_change channel=9 control=4 value=127 time=0
note_on channel=9 note=44 velocity=127 time=0
note_off channel=9 note=44 velocity=0 time=0

voet -> snel in

control_change channel=9 control=4 value=26 time=0
control_change channel=9 control=4 value=60 time=0
control_change channel=9 control=4 value=67 time=0
control_change channel=9 control=4 value=77 time=0
control_change channel=9 control=4 value=112 time=0
control_change channel=9 control=4 value=127 time=0
control_change channel=9 control=4 value=105 time=0
note_on channel=9 note=30 velocity=124 time=0
control_change channel=9 control=4 value=94 time=0
control_change channel=9 control=4 value=83 time=0
control_change channel=9 control=4 value=76 time=0
control_change channel=9 control=4 value=70 time=0
control_change channel=9 control=4 value=67 time=0
note_off channel=9 note=30 velocity=0 time=0
control_change channel=9 control=4 value=64 time=0
control_change channel=9 control=4 value=55 time=0
control_change channel=9 control=4 value=47 time=0
control_change channel=9 control=4 value=44 time=0
control_change channel=9 control=4 value=41 time=0
control_change channel=9 control=4 value=38 time=0
control_change channel=9 control=4 value=32 time=0
control_change channel=9 control=4 value=29 time=0
control_change channel=9 control=4 value=28 time=0
control_change channel=9 control=4 value=27 time=0
control_change channel=9 control=4 value=26 time=0
control_change channel=9 control=4 value=25 time=0
control_change channel=9 control=4 value=22 time=0

voet -> tap