note_on channel=9 note=46 velocity=20 time=0
note_off channel=9 note=46 velocity=0 time=0
note_on channel=9 note=46 velocity=46 time=0
note_off channel=9 note=46 velocity=0 time=0
note_on channel=9 note=46 velocity=17 time=0
note_off channel=9 note=46 velocity=0 time=0
note_on channel=9 note=46 velocity=22 time=0
note_off channel=9 note=46 velocity=0 time=0
note_on channel=9 note=46 velocity=55 time=0
note_off channel=9 note=46 velocity=0 time=0
note_on channel=9 note=46 velocity=71 time=0
note_off channel=9 note=46 velocity=0 time=0
note_on channel=9 note=46 velocity=71 time=0
note_off channel=9 note=46 velocity=0 time=0
note_on channel=9 note=46 velocity=4 time=0
note_off channel=9 note=46 velocity=0 time=0
note_on channel=9 note=46 velocity=4 time=0
note_off channel=9 note=46 velocity=0 time=0
note_on channel=9 note=46 velocity=4 time=0
note_off channel=9 note=46 velocity=0 time=0
note_on channel=9 note=46 velocity=4 time=0
note_off channel=9 note=46 velocity=0 time=0
note_on channel=9 note=46 velocity=10 time=0
note_off channel=9 note=46 velocity=0 time=0
note_on channel=9 note=46 velocity=17 time=0
note_off channel=9 note=46 velocity=0 time=0
note_on channel=9 note=46 velocity=20 time=0
note_off channel=9 note=46 velocity=0 time=0
note_on channel=9 note=46 velocity=20 time=0
note_off channel=9 note=46 velocity=0 time=0
note_on channel=9 note=46 velocity=36 time=0
note_off channel=9 note=46 velocity=0 time=0
note_on channel=9 note=46 velocity=44 time=0
note_off channel=9 note=46 velocity=0 time=0
note_on channel=9 note=46 velocity=46 time=0
note_off channel=9 note=46 velocity=0 time=0
note_on channel=9 note=46 velocity=46 time=0
note_off channel=9 note=46 velocity=0 time=0
note_on channel=9 note=46 velocity=65 time=0
note_off channel=9 note=46 velocity=0 time=0
