note_on channel=9 note=46 velocity=62 time=0
note_off channel=9 note=46 velocity=0 time=0
note_on channel=9 note=46 velocity=65 time=0
note_off channel=9 note=46 velocity=0 time=0
note_on channel=9 note=46 velocity=62 time=0
note_off channel=9 note=46 velocity=0 time=0
note_on channel=9 note=46 velocity=60 time=0
note_off channel=9 note=46 velocity=0 time=0
note_on channel=9 note=46 velocity=53 time=0
note_off channel=9 note=46 velocity=0 time=0
note_on channel=9 note=46 velocity=57 time=0
note_off channel=9 note=46 velocity=0 time=0
note_on channel=9 note=46 velocity=68 time=0
note_off channel=9 note=46 velocity=0 time=0
note_on channel=9 note=46 velocity=73 time=0
note_off channel=9 note=46 velocity=0 time=0
note_on channel=9 note=46 velocity=75 time=0
note_off channel=9 note=46 velocity=0 time=0
note_on channel=9 note=46 velocity=75 time=0
note_off channel=9 note=46 velocity=0 time=0
note_on channel=9 note=46 velocity=72 time=0
note_off channel=9 note=46 velocity=0 time=0
