note_on channel=9 note=38 velocity=57 time=0
note_off channel=9 note=38 velocity=0 time=0
note_on channel=9 note=38 velocity=71 time=0
note_off channel=9 note=38 velocity=0 time=0
note_on channel=9 note=38 velocity=75 time=0
note_off channel=9 note=38 velocity=0 time=0
note_on channel=9 note=38 velocity=55 time=0
note_off channel=9 note=38 velocity=0 time=0
note_on channel=9 note=38 velocity=27 time=0
note_off channel=9 note=38 velocity=0 time=0
note_on channel=9 note=38 velocity=38 time=0
note_off channel=9 note=38 velocity=0 time=0
note_on channel=9 note=38 velocity=46 time=0
note_off channel=9 note=38 velocity=0 time=0
note_on channel=9 note=38 velocity=88 time=0
note_off channel=9 note=38 velocity=0 time=0
note_on channel=9 note=38 velocity=69 time=0
note_off channel=9 note=38 velocity=0 time=0
note_on channel=9 note=38 velocity=36 time=0
note_off channel=9 note=38 velocity=0 time=0
note_on channel=9 note=38 velocity=25 time=0
note_off channel=9 note=38 velocity=0 time=0
note_on channel=9 note=38 velocity=17 time=0
note_on channel=9 note=38 velocity=17 time=0
note_off channel=9 note=38 velocity=0 time=0
note_off channel=9 note=38 velocity=0 time=0
note_on channel=9 note=38 velocity=75 time=0
note_off channel=9 note=38 velocity=0 time=0
note_on channel=9 note=38 velocity=58 time=0
note_off channel=9 note=38 velocity=0 time=0
