note_on channel=9 note=47 velocity=65 time=0
note_off channel=9 note=47 velocity=0 time=0
note_on channel=9 note=47 velocity=82 time=0
note_off channel=9 note=47 velocity=0 time=0
note_on channel=9 note=47 velocity=86 time=0
note_off channel=9 note=47 velocity=0 time=0
note_on channel=9 note=47 velocity=99 time=0
note_off channel=9 note=47 velocity=0 time=0
note_on channel=9 note=47 velocity=75 time=0
note_off channel=9 note=47 velocity=0 time=0
note_on channel=9 note=47 velocity=40 time=0
note_off channel=9 note=47 velocity=0 time=0
note_on channel=9 note=47 velocity=34 time=0
note_off channel=9 note=47 velocity=0 time=0
note_on channel=9 note=47 velocity=32 time=0
note_off channel=9 note=47 velocity=0 time=0
note_on channel=9 note=47 velocity=36 time=0
note_off channel=9 note=47 velocity=0 time=0
note_on channel=9 note=47 velocity=36 time=0
note_off channel=9 note=47 velocity=0 time=0
note_on channel=9 note=47 velocity=58 time=0
note_off channel=9 note=47 velocity=0 time=0
note_on channel=9 note=47 velocity=84 time=0
note_off channel=9 note=47 velocity=0 time=0
note_on channel=9 note=47 velocity=89 time=0
note_off channel=9 note=47 velocity=0 time=0
