note_on channel=9 note=63 velocity=93 time=0
note_off channel=9 note=63 velocity=0 time=0
note_on channel=9 note=63 velocity=76 time=0
note_off channel=9 note=63 velocity=0 time=0
note_on channel=9 note=63 velocity=78 time=0
note_off channel=9 note=63 velocity=0 time=0
note_on channel=9 note=63 velocity=93 time=0
note_off channel=9 note=63 velocity=0 time=0
note_on channel=9 note=63 velocity=71 time=0
note_off channel=9 note=63 velocity=0 time=0
note_on channel=9 note=63 velocity=95 time=0
note_off channel=9 note=63 velocity=0 time=0
note_on channel=9 note=63 velocity=119 time=0
note_off channel=9 note=63 velocity=0 time=0
note_on channel=9 note=63 velocity=100 time=0
note_off channel=9 note=63 velocity=0 time=0
note_on channel=9 note=63 velocity=88 time=0
note_off channel=9 note=63 velocity=0 time=0
note_on channel=9 note=63 velocity=75 time=0
note_off channel=9 note=63 velocity=0 time=0
note_on channel=9 note=63 velocity=111 time=0
note_off channel=9 note=63 velocity=0 time=0
